HIERARCHY
ROOT hips
{
  OFFSET 0 9.313263304106702 1.2146308026317778
  CHANNELS 6 Xposition Yposition Zposition Yrotation Xrotation Zrotation
  JOINT spine
  {
    OFFSET -6.402521e-31 0.5173342420023708 0
    CHANNELS 3 Yrotation Xrotation Zrotation
    JOINT chest
    {
      OFFSET 0 1.130544299341115 0
      CHANNELS 3 Yrotation Xrotation Zrotation
      JOINT upperChest
      {
        OFFSET 0 1.0863555061129995 0
        CHANNELS 3 Yrotation Xrotation Zrotation
        JOINT neck
        {
          OFFSET 0 1.3773706506454462 0
          CHANNELS 3 Yrotation Xrotation Zrotation
          JOINT head
          {
            OFFSET 0 0.7374408940073979 0
            CHANNELS 3 Yrotation Xrotation Zrotation
            JOINT leftEye
            {
              OFFSET 0.25066580148932727 0.6408406698778757 0.15963719178883284
              CHANNELS 3 Yrotation Xrotation Zrotation
              End Site
              {
                OFFSET 0.25066580148932727 0.6408406698778757 0.15963719178883284
              }
            }
            JOINT rightEye
            {
              OFFSET -0.25066576739704244 0.6408406384191823 0.15963727561643756
              CHANNELS 3 Yrotation Xrotation Zrotation
              End Site
              {
                OFFSET -0.25066576739704244 0.6408406384191823 0.15963727561643756
              }
            }
          }
        }
        JOINT leftShoulder
        {
          OFFSET 0.3761817444281191 1.0539491987447769 0
          CHANNELS 3 Yrotation Xrotation Zrotation
          JOINT leftUpperArm
          {
            OFFSET 0.8702844380000002 0 0
            CHANNELS 3 Yrotation Xrotation Zrotation
            JOINT leftLowerArm
            {
              OFFSET 2.198527310000323 0 0
              CHANNELS 3 Yrotation Xrotation Zrotation
              JOINT leftHand
              {
                OFFSET 2.146852313968281 0 0
                CHANNELS 3 Yrotation Xrotation Zrotation
                JOINT leftIndexProximal
                {
                  OFFSET 0.6585177834681599 0.07380250427007962 0.18382213159631788
                  CHANNELS 3 Yrotation Xrotation Zrotation
                  JOINT leftIndexIntermediate
                  {
                    OFFSET 0.3323021288626682 -0.009606893929485771 -0.012820872253340998
                    CHANNELS 3 Yrotation Xrotation Zrotation
                    JOINT leftIndexDistal
                    {
                      OFFSET 0.2045908926985518 -0.0071133989147997845 -0.006828784783599051
                      CHANNELS 3 Yrotation Xrotation Zrotation
                      End Site
                      {
                        OFFSET 0.2045908926985518 -0.0071133989147997845 -0.006828784783599051
                      }
                    }
                  }
                }
                JOINT leftLittleProximal
                {
                  OFFSET 0.6110054258835662 0.07380246363125398 -0.29175655876064077
                  CHANNELS 3 Yrotation Xrotation Zrotation
                  JOINT leftLittleIntermediate
                  {
                    OFFSET 0.3144281999999998 -2.5124724523095665e-9 1.8658118799974588e-7
                    CHANNELS 3 Yrotation Xrotation Zrotation
                    JOINT leftLittleDistal
                    {
                      OFFSET 0.18116185580251631 0.002815456192251098 0.0034826415518049436
                      CHANNELS 3 Yrotation Xrotation Zrotation
                      End Site
                      {
                        OFFSET 0.18116185580251631 0.002815456192251098 0.0034826415518049436
                      }
                    }
                  }
                }
                JOINT leftMiddleProximal
                {
                  OFFSET 0.6637478005691111 0.07380246480054087 0.02046981859247815
                  CHANNELS 3 Yrotation Xrotation Zrotation
                  JOINT leftMiddleIntermediate
                  {
                    OFFSET 0.3705733999999994 -2.9611069152224445e-9 9.35054791928458e-8
                    CHANNELS 3 Yrotation Xrotation Zrotation
                    JOINT leftMiddleDistal
                    {
                      OFFSET 0.22861063500000056 -1.82673876025774e-9 -1.6740782024515788e-7
                      CHANNELS 3 Yrotation Xrotation Zrotation
                      End Site
                      {
                        OFFSET 0.22861063500000056 -1.82673876025774e-9 -1.6740782024515788e-7
                      }
                    }
                  }
                }
                JOINT leftRingProximal
                {
                  OFFSET 0.6561845547265777 0.07380246406440083 -0.13588087571513918
                  CHANNELS 3 Yrotation Xrotation Zrotation
                  JOINT leftRingIntermediate
                  {
                    OFFSET 0.3437531000000005 -2.746796123886952e-9 1.4935781944558357e-7
                    CHANNELS 3 Yrotation Xrotation Zrotation
                    JOINT leftRingDistal
                    {
                      OFFSET 0.1983118991198174 -0.002467117924596085 -0.004538141969590015
                      CHANNELS 3 Yrotation Xrotation Zrotation
                      End Site
                      {
                        OFFSET 0.1983118991198174 -0.002467117924596085 -0.004538141969590015
                      }
                    }
                  }
                }
                JOINT leftThumbProximal
                {
                  OFFSET 0.09767004258864787 -0.14930060425447422 -0.07008212897521154
                  CHANNELS 3 Yrotation Xrotation Zrotation
                  JOINT leftThumbIntermediate
                  {
                    OFFSET 0.36682123028154767 -0.015768465060082004 0.28693641268151077
                    CHANNELS 3 Yrotation Xrotation Zrotation
                    JOINT leftThumbDistal
                    {
                      OFFSET 0.21091084272403915 -0.016756648201192714 0.1933767059105508
                      CHANNELS 3 Yrotation Xrotation Zrotation
                      End Site
                      {
                        OFFSET 0.21091084272403915 -0.016756648201192714 0.1933767059105508
                      }
                    }
                  }
                }
              }
            }
          }
        }
        JOINT rightShoulder
        {
          OFFSET -0.37618174442811925 1.0539491987447769 0
          CHANNELS 3 Yrotation Xrotation Zrotation
          JOINT rightUpperArm
          {
            OFFSET -0.870284438 0 0
            CHANNELS 3 Yrotation Xrotation Zrotation
            JOINT rightLowerArm
            {
              OFFSET -2.1985273100003235 0 0
              CHANNELS 3 Yrotation Xrotation Zrotation
              JOINT rightHand
              {
                OFFSET -2.1468523139682802 0 0
                CHANNELS 3 Yrotation Xrotation Zrotation
                JOINT rightIndexProximal
                {
                  OFFSET -0.6585177834681599 0.07380250427007962 0.18382213159631788
                  CHANNELS 3 Yrotation Xrotation Zrotation
                  JOINT rightIndexIntermediate
                  {
                    OFFSET -0.3323021288626682 -0.009606893929485771 -0.012820872253340998
                    CHANNELS 3 Yrotation Xrotation Zrotation
                    JOINT rightIndexDistal
                    {
                      OFFSET -0.2045908926985518 -0.0071133989147997845 -0.006828784783599051
                      CHANNELS 3 Yrotation Xrotation Zrotation
                      End Site
                      {
                        OFFSET -0.2045908926985518 -0.0071133989147997845 -0.006828784783599051
                      }
                    }
                  }
                }
                JOINT rightLittleProximal
                {
                  OFFSET -0.6110054258835662 0.07380246363125398 -0.29175655876064077
                  CHANNELS 3 Yrotation Xrotation Zrotation
                  JOINT rightLittleIntermediate
                  {
                    OFFSET -0.3144281999999998 -2.5124724523095665e-9 1.8658118799974588e-7
                    CHANNELS 3 Yrotation Xrotation Zrotation
                    JOINT rightLittleDistal
                    {
                      OFFSET -0.18116185580251631 0.002815456192251098 0.0034826415518049436
                      CHANNELS 3 Yrotation Xrotation Zrotation
                      End Site
                      {
                        OFFSET -0.18116185580251631 0.002815456192251098 0.0034826415518049436
                      }
                    }
                  }
                }
                JOINT rightMiddleProximal
                {
                  OFFSET -0.6637478005691111 0.07380246480054087 0.02046981859247815
                  CHANNELS 3 Yrotation Xrotation Zrotation
                  JOINT rightMiddleIntermediate
                  {
                    OFFSET -0.3705733999999994 -2.9611069152224445e-9 9.35054791928458e-8
                    CHANNELS 3 Yrotation Xrotation Zrotation
                    JOINT rightMiddleDistal
                    {
                      OFFSET -0.22861063500000056 -1.82673876025774e-9 -1.6740782024515788e-7
                      CHANNELS 3 Yrotation Xrotation Zrotation
                      End Site
                      {
                        OFFSET -0.22861063500000056 -1.82673876025774e-9 -1.6740782024515788e-7
                      }
                    }
                  }
                }
                JOINT rightRingProximal
                {
                  OFFSET -0.6561845547265777 0.07380246406440083 -0.13588087571513918
                  CHANNELS 3 Yrotation Xrotation Zrotation
                  JOINT rightRingIntermediate
                  {
                    OFFSET -0.3437531000000005 -2.746796123886952e-9 1.4935781944558357e-7
                    CHANNELS 3 Yrotation Xrotation Zrotation
                    JOINT rightRingDistal
                    {
                      OFFSET -0.1983118991198174 -0.002467117924596085 -0.004538141969590015
                      CHANNELS 3 Yrotation Xrotation Zrotation
                      End Site
                      {
                        OFFSET -0.1983118991198174 -0.002467117924596085 -0.004538141969590015
                      }
                    }
                  }
                }
                JOINT rightThumbProximal
                {
                  OFFSET -0.09767004258864787 -0.14930060425447422 -0.07008212897521154
                  CHANNELS 3 Yrotation Xrotation Zrotation
                  JOINT rightThumbIntermediate
                  {
                    OFFSET -0.36682123028154767 -0.015768465060082004 0.28693641268151077
                    CHANNELS 3 Yrotation Xrotation Zrotation
                    JOINT rightThumbDistal
                    {
                      OFFSET -0.21091084272403915 -0.016756648201192714 0.1933767059105508
                      CHANNELS 3 Yrotation Xrotation Zrotation
                      End Site
                      {
                        OFFSET -0.21091084272403915 -0.016756648201192714 0.1933767059105508
                      }
                    }
                  }
                }
              }
            }
          }
        }
      }
    }
  }
  JOINT leftUpperLeg
  {
    OFFSET 0.7715603 -0.3993844658041501 0
    CHANNELS 3 Yrotation Xrotation Zrotation
    JOINT leftLowerLeg
    {
      OFFSET 0 -3.529830000249343 0
      CHANNELS 3 Yrotation Xrotation Zrotation
      JOINT leftFoot
      {
        OFFSET 0 -4.154939295409685 0.004208579085223096
        CHANNELS 3 Yrotation Xrotation Zrotation
        JOINT leftToes
        {
          OFFSET 0 -0.6353414391261847 1.10414981190622
          CHANNELS 3 Yrotation Xrotation Zrotation
          End Site
          {
            OFFSET 0 -0.6015820691747853 1.10414981190622
          }
        }
      }
    }
  }
  JOINT rightUpperLeg
  {
    OFFSET -0.7715603 -0.3993844658041501 0
    CHANNELS 3 Yrotation Xrotation Zrotation
    JOINT rightLowerLeg
    {
      OFFSET 0 -3.529830000249343 0
      CHANNELS 3 Yrotation Xrotation Zrotation
      JOINT rightFoot
      {
        OFFSET 0 -4.154939295409685 0.004208579085223096
        CHANNELS 3 Yrotation Xrotation Zrotation
        JOINT rightToes
        {
          OFFSET 0 -0.6353414391261847 1.10414981190622
          CHANNELS 3 Yrotation Xrotation Zrotation
          End Site
          {
            OFFSET 0 -0.6015820691747853 1.10414981190622
          }
        }
      }
    }
  }
}
MOTION
Frames: 4
Frame Time: 0.03333333333333333
-0.03164718774231998 8.926941264759408 1.2041436371604082 4.235285319565667 -2.506046614975936 -2.0544947198443113 1.858192385339985 3.5433338868826723 2.5954074264338143 1.8193238151876643 3.121548165921755 3.0632607219685593 0 0 0 -2.039666464453049 11.442242296693001 2.6427725765124936 -9.096220598945052 9.576145179568277 5.540806353261099 0 0 0 0 0 0 -16.786263906594236 0.9844250082609272 -12.703600067160165 -14.385081729372367 2.9048227633709707 -70.14950872900909 -1.0867198876738557 -0.000013213302882448138 0.0000019487967924243115 -3.6527721668611783 -34.92082710325583 -3.1013819650679375 -0.8151517094131644 0.03253976000194967 -8.591452028421946 1.7622878812990102 0.26909859651033396 -17.343887656883027 0.8109665094790783 0.05725445044235521 -8.01360265154096 5.776608785953097 1.0408578034930505 -27.823011093738106 1.7327669103469305 0.335238136003735 -17.506247897075486 1.6623646956129836 0.3028706212400276 -16.607699479313766 3.046710178482792 -0.026815347005777947 -18.576563609891465 1.7754505205705282 0.27370315616514906 -17.572883526599387 1.8734118595770506 0.3064345362637707 -18.579103544339905 3.629341555984146 0.12138362472765091 -21.723809110086783 2.0979317766167904 0.38780557410756744 -20.930565555525263 1.8043797753808215 0.2843250800579391 -17.894606083425828 3.1681496964252434 -0.262606565217517 4.895645492683051 25.1261425039651 10.544797730825454 21.853341406632683 2.891225063866158 -13.944191749222965 8.247268660277694 15.782713814334492 1.0407137054167162 15.555948777043831 28.765240618456524 11.576803232495688 64.01669353732433 6.812979509316641 -0.000008105649203486038 -0.000005463039190182495 -0.725041216806051 -20.169741849406567 7.058628181171525 1.2962167353531098 0.04077499548199662 6.757608416390104 -1.3633079548691227 0.20930378192567503 17.35031717922638 -0.6598457579361011 0.0453808921631663 8.00114872420009 -4.8220025329584635 0.7100200718716876 26.27965032437568 -1.3093250760939672 0.1676781818223836 17.44061430584022 -1.3899722368166665 0.16479701714437692 16.540084357504213 -2.2226936156188146 -0.12940148560811573 14.921478424460739 -1.306896939957314 0.2036729080560278 17.483083852442455 -1.5176922590299873 0.24006741764477976 18.491574767759698 -3.0373598246588926 0.01754906911161863 20.374977023619092 -1.6992808801959642 0.3133205081971034 21.017685441398317 -1.4520973913341757 0.23401683211228505 17.96901471515192 -0.9429729382892592 -1.389747540861446 -4.377586253230121 -29.387089022129047 10.829664330321902 -22.10197825131874 -2.831072244745825 -15.633845110318395 -11.850733989429864 14.080857109830326 -11.973467280633775 4.250631427753719 -3.737235219444905 8.998344440214714 4.183325410954832 -1.9208099152669955 4.117789901673738 -6.932593433161226 -0.000005944359270400144 -4.938561704932585 -0.0000016078613690998 -9.999271955189279 -2.169963100343792 4.589612495554617 -9.048503552729569 9.22392576226395 -7.759923041530869 -12.762468570533905 -3.7553674828631816 4.949625187589611 8.596512847746728e-7 -7.1949830300834865 -0.000004030380701539805
-0.033390687947923485 8.926381197842684 1.2116279909005152 3.899527027860497 -2.5170674665334483 -2.0593391414181985 1.8453033674458206 3.5288055222333132 2.600460313720804 1.7695984922916848 3.0728202153020683 3.082172221192505 0 0 0 -2.4336773757958334 10.937199239323105 2.3155773949912986 -10.738000231556162 8.578143279419438 3.8124830608941136 0 0 0 0 0 0 -16.8046257609857 0.9822207737029863 -12.700447205807375 -14.247995086492537 2.9070046127343914 -70.23637600071449 -0.9977443912929539 -0.0000017395380748224718 0.000017309491726495198 -3.691293774052069 -34.94390464092527 -3.0588835894272934 -0.806388673085989 0.03739812315666994 -8.615103535179871 1.7593690489334688 0.2682036184474879 -17.314083426705746 0.8079433968612987 0.05682938434767948 -7.983769066801896 5.776524758699539 1.0412213576319398 -27.850288944476645 1.7338202892978927 0.3356166310193456 -17.517158552856294 1.6634262818401948 0.3032225676681473 -16.618587716226823 3.063849199575169 -0.02382135430128628 -18.6980099159003 1.7756263146489366 0.273759959441308 -17.57469103332644 1.8735889354077464 0.3064908594496835 -18.5809373269263 3.6298600681421243 0.12100629595250836 -21.756799212055576 2.0961373873776856 0.387127342158831 -20.911860449098338 1.8025850363338247 0.28374584088231725 -17.876124941945058 3.166996739670143 -0.2569091417198517 4.887343131682499 25.123846111124582 10.551671508216314 21.85317516910606 2.891704631736886 -13.94406595250979 8.247278551835372 15.741221625246185 1.0495585643163274 15.512465957228262 28.808249668751042 11.490539448557158 63.93694762818097 6.892214262708137 0.000001107975179057636 0.000014333026674276559 -0.7236109138916496 -20.20880107292045 7.019064078590553 1.2797556849556473 0.039869301501591375 6.796163912634609 -1.368095517918055 0.2107765380212881 17.411877322916528 -0.66481714224263 0.046093089688456976 8.062729103461574 -4.823990230979361 0.7113778898683646 26.319537044155247 -1.3094530805915372 0.16770340827363128 17.442257172029112 -1.3901090971915728 0.1648581822751006 16.54173265565346 -2.239381703539096 -0.12613009700605557 14.970529722904946 -1.3070678359287893 0.20371701107965243 17.485326705463894 -1.5178681666960159 0.24014543189672977 18.493774104419604 -3.0628562208568417 0.026127357118392886 20.425964982460503 -1.6999236795848185 0.3135697337899328 21.026129280516592 -1.452782229651772 0.23424970081859248 17.97795650533805 -0.9387674801594079 -1.3780063294177194 -4.36388658794623 -29.40569975724261 10.828163130721359 -22.107967942835124 -2.8305474155574197 -15.633935540858921 -11.850746028790535 14.081717112101213 -11.997131504129445 4.327827965572639 -3.7297051910107832 9.264889097596749 4.177994769158087 -1.601352236063192 3.9246492042027405 -6.96301448261228 -0.0000034289599720787217 -4.9202265484852425 -0.000002019153606894298 -10.016830049391219 -2.18002246483277 4.520549940948811 -9.099603399968082 9.332002454809587 -7.658574797216655 -12.364100641166013 -3.8750530551282627 4.901832588146323 -0.000004046792139380545 -7.194538126004073 -0.0000014485857331425012
-0.03499601713635705 8.925756107677111 1.219434475149343 3.457907952750431 -2.5180124388096603 -2.0671218739598025 1.8294174420247358 3.5137402049253468 2.605115873781667 1.7080216695749848 3.0242845050659786 3.105566346195383 0 0 0 -2.451191754806852 10.350168594405144 2.0679776212025778 -10.611218215967387 6.981066678843492 2.863476839162777 0 0 0 0 0 0 -16.826109417634985 0.9824557027055238 -12.679428041134647 -14.240318043084002 2.9178224505310677 -70.34076098612591 -0.8897544564741107 0.000011877683242397024 -0.00003243396009615102 -3.611340791701432 -34.843215036300094 -3.156876603129 -0.7959658292065662 0.03902048687844795 -8.642787575660753 1.7585213366447372 0.2679255786804456 -17.30545343470928 0.8070682743194456 0.05670785494556915 -7.975146371322374 5.7769287116057235 1.0419393931903342 -27.885396368752847 1.7343898086759346 0.335813909478938 -17.523062910352575 1.6639914253805448 0.30341258832797574 -16.624479648334294 3.111589421622745 -0.010599053763685912 -18.826291994903126 1.7755478042911905 0.2737373341814435 -17.573845341543855 1.8735115974405616 0.30647373037084785 -18.58009548873401 3.6308845213598397 0.12107822654271881 -21.775197078984686 2.0947674609544165 0.3865903062939281 -20.897521163256883 1.8011880728817757 0.28330886350776063 -17.86186284212657 3.2028874009565125 -0.24027579360600915 4.885582033047194 25.105494314060874 10.556926599435903 21.84792214728934 2.8916114604426895 -13.944106418577874 8.247262149354095 15.714784947391937 1.0615407494627707 15.451515831553465 28.83413769403896 11.38233879068067 63.87108275617428 6.971358763498251 0.000007517422662922448 0.000002199919344743197 -0.7320874936605605 -20.286497480304657 6.985091991647326 1.2943834383143555 0.03849132051948421 6.792218955870895 -1.37291754329161 0.21228956863627862 17.473865170290782 -0.6698203808770545 0.046801435233016254 8.12473598182717 -4.823722904430786 0.7111415898047198 26.308583999793314 -1.309677294696646 0.16777026970882475 17.445118946327955 -1.3903294725786086 0.16490092449524238 16.54459715023729 -2.241001334912247 -0.1256207130750769 14.967114216229414 -1.3083470585722377 0.20411492547975144 17.501818192807132 -1.5191215555182909 0.240557674792935 18.510219164238812 -3.0776456103655176 0.03161562992631978 20.426066102990045 -1.6980241908280933 0.31283822560864843 21.001273925630784 -1.450881559328003 0.2336088849951752 17.953472544596096 -0.9362738191164357 -1.3711017960915999 -4.353772277229497 -29.40903573044121 10.83255896341729 -22.10980682226358 -2.8322674820641938 -15.633630559587923 -11.85068211382705 14.083270125053746 -12.021509231329865 4.420602523988536 -3.7247523660108137 9.551011674945114 4.172403285784129 -1.1816715293855093 3.7249146844868464 -6.9781343117415355 -0.0000010257199048428335 -4.910480739325347 -0.0000011263867784095936 -10.034199885850613 -2.2170832455733906 4.431028147582197 -9.191991468448961 9.460452381208503 -7.528881427080241 -11.819241623491994 -4.010158067853883 4.833420061644102 0.000005547164054772979 -7.194568245221993 -0.0000048907792744572706
-0.03628399561751972 8.92536163330078 1.227585945832858 2.9420744390374702 -2.5192614355490197 -2.09227632308258 1.8155666998647244 3.494286890090358 2.614108423799942 1.6540397257031803 2.963911368017502 3.127628263692463 0 0 0 -2.1675371265085204 9.749822565332959 1.9015444608610488 -9.116716958508857 5.136206237586748 2.6012864827515316 0 0 0 0 0 0 -16.802735483149988 0.9829606773688967 -12.674039228415856 -14.376016103333225 2.913585449898873 -70.41541449022833 -0.7748329078978399 0.000008668778979391261 -0.000005516994832243091 -3.4405953381226873 -34.59403343928609 -3.2926085661017015 -0.7950720972374485 0.03472720850194121 -8.704347035413802 1.7596692200743909 0.2682817662729858 -17.31715322534852 0.8082494340420412 0.05686951172880563 -7.986830724622899 5.766319464399144 1.0368162285335898 -27.92195327633896 1.7350006078505094 0.3360356276334346 -17.529358835098595 1.6646122474643383 0.3036240069935774 -16.630804350486134 3.136925610220143 -0.00517817093897972 -18.971736590803324 1.775401025769794 0.2736868809193288 -17.57233324361936 1.8733559664939317 0.30641313825574695 -18.578582456959737 3.6300837474073315 0.12093167063341516 -21.765639523166488 2.0945247712689414 0.3865023389260129 -20.894973709741006 1.8009408098316084 0.28321502730119696 -17.859309170029807 3.233578319421997 -0.2227066827064139 4.885004876224635 25.117193278110246 10.553985092095653 21.852186975283985 2.8907316578585465 -13.944315786608696 8.247250062705971 15.704023769105573 1.07606094956583 15.380195711726893 28.857682629472496 11.273319997846736 63.83635392398791 7.0043578219418325 -0.000002430165855688206 0.000003480096369809002 -0.738137065317114 -20.34961510968833 6.964354731294622 1.3095517715507792 0.038118891698555764 6.773800491963213 -1.371878005764796 0.21194369455781703 17.46044429882957 -0.6687421384885643 0.04664998040688188 8.111295962988748 -4.822474352980994 0.7101757907994838 26.272109475854858 -1.3098747571769465 0.16782803307979632 17.447658830883903 -1.3905324812053201 0.16495447233296523 16.54710509830075 -2.236913292826981 -0.12589473505493803 14.932491700305759 -1.3085989069926327 0.20418262749161004 17.504968262930912 -1.519380645279444 0.2406476153034952 18.513408823089055 -3.061621696380333 0.026274457997453357 20.390275856389664 -1.6980327249425875 0.3128325692739298 21.001238741117636 -1.4508560608058212 0.23360795117248773 17.95312047300026 -0.9328620249304271 -1.379149543062717 -4.365049269347981 -29.40545176693825 10.837315610468877 -22.10801380285498 -2.835199201944028 -15.633082658329428 -11.850561396479643 14.086178171538341 -12.03946661005092 4.539354699170641 -3.722293516459476 9.845199586542472 4.1703699423240375 -0.6901483664920341 3.5194930919760115 -6.999236162688453 0.000010005532424150414 -4.900794627578417 -0.0000040570499432228974 -10.057256869113846 -2.2321771733696267 4.3433101743671845 -9.32178662544845 9.544194632494417 -7.377453310951379 -11.151335557529213 -4.129594427510409 4.742074440829336 -0.000008630418086866084 -7.194966679635711 -0.000001448737003060206
